<svg version="1.0" xmlns="http://www.w3.org/2000/svg"
 width="24.000000pt" height="24.000000pt" viewBox="0 0 24.000000 24.000000"
 preserveAspectRatio="xMidYMid meet">
<metadata>
Created by potrace 1.13, written by Peter Selinger 2001-2015
</metadata>
<g transform="translate(0.000000,24.000000) scale(0.100000,-0.100000)"
fill="#000000" stroke="none">
<path d="M5 230 c-10 -17 75 -100 104 -101 l26 -1 -28 -10 c-25 -9 -28 -14
-25 -51 2 -34 8 -44 31 -55 15 -7 32 -10 37 -7 6 3 10 34 10 67 0 57 2 63 40
105 23 24 38 48 35 53 -8 13 -222 13 -230 0z"/>
</g>
</svg>
