<?xml version="1.0" standalone="no"?>
<!DOCTYPE svg PUBLIC "-//W3C//DTD SVG 20010904//EN"
 "http://www.w3.org/TR/2001/REC-SVG-20010904/DTD/svg10.dtd">
<svg version="1.0" xmlns="http://www.w3.org/2000/svg"
 width="600.000000pt" height="600.000000pt" viewBox="0 0 600.000000 600.000000"
 preserveAspectRatio="xMidYMid meet">
<metadata>
Created by potrace 1.11, written by Peter Selinger 2001-2013
</metadata>
<g transform="translate(0.000000,600.000000) scale(0.100000,-0.100000)"
fill="#000000" stroke="none">
<path d="M2798 5995 c-2 -1 -34 -6 -73 -9 -107 -10 -158 -16 -181 -21 -12 -3
-39 -7 -60 -10 -173 -26 -468 -114 -659 -195 -707 -303 -1279 -874 -1581
-1578 -118 -274 -206 -619 -231 -907 -15 -161 -8 -520 12 -660 2 -16 6 -46 9
-65 31 -217 123 -543 206 -725 94 -209 157 -324 263 -485 465 -701 1225 -1186
2044 -1305 54 -7 116 -16 138 -20 65 -10 463 -13 555 -4 155 15 185 19 275 34
758 131 1442 557 1903 1184 48 65 100 141 117 167 157 258 260 485 338 744 34
110 82 324 93 413 3 23 7 53 10 67 25 150 25 616 -1 760 -2 14 -6 43 -9 65 -9
69 -23 148 -46 241 -242 1023 -999 1844 -2000 2169 -63 20 -122 39 -130 40 -8
2 -64 15 -125 29 -60 14 -159 33 -220 41 -60 9 -123 18 -140 21 -32 6 -501 14
-507 9z m115 -4042 c-3 -7 2 -16 11 -19 18 -7 12 -24 -10 -24 -8 0 -13 6 -11
13 1 6 -6 11 -15 11 -10 -1 -18 2 -18 7 0 5 -5 9 -11 9 -8 0 -7 -6 2 -17 12
-15 12 -16 -3 -10 -10 3 -17 3 -16 -1 1 -4 -2 -15 -7 -26 -5 -12 -3 -21 6 -27
8 -5 12 -9 9 -10 -3 0 -14 -2 -24 -4 -11 -2 -23 -11 -28 -19 -5 -9 -14 -16
-20 -16 -7 0 -7 4 1 14 9 11 8 15 -5 20 -9 4 -19 4 -22 1 -3 -3 0 -5 6 -5 20
0 13 -16 -6 -17 -10 -1 -19 5 -20 13 -1 8 -3 21 -4 29 -1 8 -5 12 -10 9 -4 -3
-3 -15 4 -27 6 -12 12 -24 12 -27 1 -3 8 -5 16 -5 8 0 16 -9 17 -20 2 -11 0
-14 -3 -6 -5 11 -8 11 -15 0 -6 -10 -9 -11 -9 -1 0 6 -7 12 -15 12 -8 0 -15 5
-15 10 0 6 -6 10 -12 10 -7 -1 -1 -11 15 -23 36 -30 35 -44 -2 -18 -16 12 -35
21 -43 20 -7 0 -3 -4 10 -9 12 -5 22 -14 22 -20 0 -8 -6 -8 -20 0 -23 12 -22
13 -25 -17 -2 -23 16 -36 38 -27 8 3 14 -2 14 -11 0 -9 -6 -14 -14 -11 -8 3
-11 1 -8 -4 3 -6 1 -10 -5 -10 -6 0 -13 7 -16 15 -4 8 -16 15 -28 14 -21 0
-21 0 2 -9 25 -11 30 -27 7 -27 -8 0 -15 4 -15 9 0 4 -5 8 -11 8 -8 0 -7 -6 2
-17 12 -15 12 -16 -6 -10 -14 6 -11 0 10 -18 17 -16 23 -24 13 -21 -10 3 -18
1 -18 -4 0 -6 7 -10 15 -10 8 0 15 -2 15 -4 0 -2 3 -13 7 -23 6 -17 6 -17 -15
0 -11 11 -26 16 -32 12 -7 -4 -14 2 -17 14 -3 12 -10 21 -15 21 -5 0 0 -16 13
-36 l22 -36 -23 7 c-15 5 -20 4 -16 -4 4 -6 14 -11 22 -11 8 0 14 -4 14 -10 0
-5 -6 -10 -14 -10 -8 0 -18 -5 -22 -11 -4 -8 1 -9 17 -4 22 7 23 7 9 -10 -11
-14 -12 -17 -1 -11 9 6 12 5 9 -5 -3 -8 -14 -13 -24 -12 -10 1 -13 0 -6 -3 6
-3 9 -11 6 -16 -4 -7 -2 -8 4 -4 7 4 12 3 12 -3 0 -14 -32 -29 -48 -24 -6 3
-9 10 -6 15 5 7 2 8 -6 3 -22 -13 18 -37 41 -24 11 5 19 6 19 1 0 -5 -11 -15
-25 -22 -14 -7 -25 -18 -25 -23 0 -5 6 -4 14 2 11 10 17 8 29 -9 11 -16 16
-18 20 -7 3 8 2 19 -2 25 -10 17 -6 85 6 89 6 2 10 -13 8 -39 -1 -24 2 -48 7
-55 6 -8 2 -19 -13 -34 -15 -15 -17 -20 -6 -16 8 3 21 -1 29 -10 11 -14 10
-15 -12 -9 -14 4 -20 4 -15 -1 17 -13 46 -63 38 -63 -5 -1 3 -7 17 -15 14 -7
24 -17 24 -22 -3 -14 28 -49 32 -37 3 6 11 20 19 30 13 18 14 18 9 -6 -3 -14
-7 -33 -8 -42 -1 -10 -5 -21 -9 -24 -4 -4 -7 -12 -7 -18 0 -6 7 -3 15 7 7 11
11 26 7 35 -5 14 -3 15 10 4 9 -7 24 -9 34 -5 17 6 17 5 5 -10 -7 -9 -17 -14
-22 -11 -5 3 -9 0 -9 -5 0 -16 16 -13 30 4 7 8 17 15 22 15 6 0 6 -6 -1 -14
-14 -17 -3 -49 14 -42 7 2 21 -1 31 -9 14 -9 23 -10 32 -3 9 8 12 5 10 -13 -3
-20 2 -24 27 -25 17 0 38 3 48 8 23 12 23 -8 0 -21 -10 -5 -14 -13 -10 -17 5
-5 12 -2 16 5 6 9 11 10 15 2 4 -6 13 -11 19 -11 7 0 4 5 -6 11 -21 12 -9 42
19 44 11 2 27 6 37 10 13 6 16 4 11 -9 -3 -9 -11 -13 -16 -10 -6 4 -5 -3 1
-15 13 -23 23 -29 15 -8 -5 15 22 17 43 4 7 -4 14 1 18 13 3 11 10 20 14 20
13 0 32 -26 24 -33 -11 -12 -24 -7 -17 6 4 6 -4 1 -16 -12 -15 -15 -25 -20
-28 -13 -2 7 -8 12 -13 12 -6 0 -7 -4 -4 -10 3 -5 3 -10 -2 -11 -4 0 -36 -2
-69 -5 -34 -3 -87 -1 -118 6 -31 6 -57 10 -59 8 -2 -2 -11 3 -20 11 -10 7 -17
10 -17 5 0 -5 -5 -1 -11 8 -6 11 -16 15 -26 11 -11 -4 -14 -3 -9 5 5 8 0 12
-13 12 -11 0 -25 8 -30 18 -6 9 -11 13 -11 8 0 -5 -9 -1 -20 9 -11 10 -17 22
-14 26 3 5 -1 6 -9 4 -25 -10 -130 150 -140 213 -2 12 -6 25 -10 28 -4 4 1 13
11 21 16 12 16 13 0 7 -10 -3 -18 -2 -19 2 0 5 -2 17 -4 27 -2 9 1 17 7 17 7
0 7 5 -1 13 -8 10 -7 17 2 27 9 10 9 11 0 6 -8 -5 -13 -1 -13 9 0 11 5 15 15
12 8 -4 17 -1 21 5 4 7 3 8 -5 4 -18 -12 -23 17 -11 70 13 56 51 144 63 144 5
0 5 5 2 10 -3 6 1 13 9 16 9 3 16 12 16 20 0 8 4 14 9 14 5 0 8 -12 5 -27 -3
-20 -2 -24 5 -14 5 8 8 25 6 38 -1 16 5 28 19 35 25 14 26 13 38 -4 8 -10 9
-10 5 2 -2 8 -10 14 -16 13 -6 -2 -11 2 -11 7 0 6 7 10 15 10 8 0 15 4 15 8 0
9 82 58 89 53 2 -1 8 3 13 11 7 10 11 10 14 1 4 -9 12 -6 27 8 21 19 22 19 36
2 11 -15 13 -15 8 -1 -3 9 -3 19 1 22 9 9 21 -15 15 -31z m177 24 c0 -4 4 -6
9 -3 4 3 31 -3 59 -13 l52 -18 -33 -16 c-19 -11 -23 -15 -10 -11 18 4 22 2 17
-10 -3 -9 -10 -13 -15 -10 -6 3 -16 0 -25 -6 -12 -11 -14 -9 -11 9 2 11 12 28
23 37 10 8 12 12 4 8 -8 -4 -23 -14 -32 -22 -11 -9 -18 -11 -18 -4 0 6 10 18
22 26 12 9 18 16 13 16 -18 -1 -59 -41 -49 -48 5 -4 11 -16 12 -26 3 -17 2
-18 -12 -7 -9 7 -14 16 -12 20 3 4 0 13 -5 21 -8 13 -10 13 -19 0 -5 -8 -10
-12 -10 -8 0 3 -3 14 -6 22 -5 12 -2 15 11 10 16 -6 16 -5 -1 14 -22 27 -25
27 -17 5 6 -16 4 -16 -15 1 -12 11 -23 15 -24 10 0 -5 -2 -13 -3 -19 -2 -5 -3
-18 -4 -29 -1 -12 -6 -16 -16 -13 -17 7 -30 -9 -15 -18 5 -3 10 -11 10 -17 0
-6 -8 -4 -19 6 -16 15 -19 15 -31 1 -7 -8 -18 -15 -24 -15 -11 1 26 36 45 42
5 2 7 11 4 21 -4 9 -11 14 -17 11 -12 -8 -6 29 7 38 14 10 155 6 155 -5z m-55
-47 c11 -21 20 -28 33 -23 9 3 14 2 9 -2 -4 -5 0 -17 9 -27 13 -14 20 -15 31
-7 7 6 13 8 13 4 0 -4 7 -2 15 5 21 17 31 5 14 -17 -12 -14 -12 -16 0 -8 10 5
12 4 7 -4 -4 -6 -4 -11 1 -10 4 1 16 -1 26 -6 17 -7 17 -8 0 -22 -10 -8 -12
-12 -5 -8 7 4 20 1 29 -7 9 -7 14 -8 10 -2 -4 6 2 10 16 9 12 -2 21 -8 19 -14
-1 -7 2 -9 9 -5 7 4 9 3 6 -2 -3 -6 -2 -16 4 -24 7 -13 9 -13 9 0 0 13 1 13
10 0 8 -13 10 -13 10 -1 0 11 4 9 14 -5 11 -15 12 -22 3 -34 -10 -13 -10 -13
3 -3 10 8 21 9 30 3 8 -6 10 -10 5 -10 -6 0 -11 -9 -12 -21 -1 -15 3 -19 13
-15 10 4 12 2 8 -6 -5 -7 -3 -8 7 -3 12 7 12 6 1 -7 -9 -11 -10 -18 -2 -23 5
-3 10 1 10 9 0 9 5 16 10 16 7 0 7 -6 0 -20 -8 -15 -8 -20 2 -20 8 0 9 -3 3
-8 -5 -4 -11 -20 -12 -35 -2 -24 1 -27 20 -22 17 4 16 2 -5 -10 -30 -17 -38
-28 -13 -19 8 4 15 1 15 -6 0 -6 -4 -9 -8 -6 -5 3 -9 -1 -9 -9 0 -8 4 -15 9
-15 5 0 6 -5 2 -11 -4 -8 -9 -7 -15 2 -6 10 -9 10 -9 2 0 -6 4 -14 10 -18 5
-3 7 -13 4 -23 -5 -15 -4 -15 6 -2 10 13 11 13 7 -1 -3 -9 0 -23 6 -30 8 -8 5
-8 -7 1 -16 12 -18 13 -11 1 6 -10 4 -12 -6 -6 -11 7 -11 5 1 -10 13 -17 13
-18 0 -10 -13 8 -13 7 0 -10 8 -10 10 -16 4 -12 -7 4 -17 0 -24 -8 -7 -8 -9
-15 -4 -15 5 0 1 -5 -9 -11 -9 -6 -14 -15 -11 -21 4 -7 2 -8 -5 -4 -7 5 -10 2
-9 -6 2 -7 -5 -12 -14 -12 -10 1 -18 -2 -18 -7 0 -5 8 -9 18 -9 10 -1 4 -8
-18 -20 -19 -11 -29 -19 -22 -20 6 0 12 -5 12 -11 0 -8 -4 -8 -14 0 -12 10
-18 8 -31 -12 -9 -14 -23 -24 -32 -23 -20 3 -30 26 -12 26 7 0 9 3 5 7 -8 8
-11 9 -43 12 -14 2 -13 4 6 12 14 6 21 15 17 24 -3 8 0 17 6 21 7 4 8 3 4 -4
-4 -7 -5 -12 -2 -12 2 0 13 -3 23 -7 16 -6 16 -5 4 11 -12 15 -12 19 1 33 18
17 42 8 34 -13 -3 -8 -1 -14 4 -14 6 0 10 4 10 9 0 5 9 13 20 16 11 4 18 11
14 16 -4 6 -10 7 -17 0 -13 -10 -52 11 -40 22 3 4 11 -1 18 -10 8 -11 14 -13
19 -5 4 7 2 12 -4 12 -5 0 -9 13 -8 29 1 16 5 28 9 25 4 -2 9 -1 12 3 2 5 2 2
1 -4 -4 -15 -2 -15 20 -7 9 3 16 10 16 16 0 5 -4 6 -10 3 -5 -3 -10 -1 -10 5
0 7 7 10 15 6 25 -9 17 11 -12 32 -16 10 -35 17 -43 15 -13 -4 -13 -3 0 6 11
7 21 6 37 -5 13 -8 23 -10 23 -5 0 5 -4 13 -10 16 -6 4 -4 15 5 29 14 22 12
36 -7 36 -5 0 -7 -4 -4 -9 3 -4 -1 -17 -9 -27 -8 -10 -15 -14 -15 -7 0 6 5 15
10 18 8 5 7 11 0 20 -14 16 -5 35 16 35 8 0 14 5 14 11 0 5 -4 8 -8 5 -5 -3
-9 1 -9 9 0 16 8 18 42 16 19 -1 19 -1 2 9 -9 6 -15 15 -12 21 6 9 0 11 -40
13 -23 1 -45 -12 -45 -26 0 -6 7 -5 15 2 9 7 18 10 22 7 3 -4 12 -2 20 4 7 6
13 8 13 4 0 -4 -8 -14 -17 -21 -10 -7 -18 -20 -18 -30 0 -9 -6 -19 -12 -21 -7
-3 -13 0 -13 7 0 6 5 8 12 4 7 -5 9 -2 5 8 -3 9 0 21 6 27 8 8 8 11 0 11 -7 0
-15 -5 -18 -10 -4 -6 -11 -8 -16 -5 -17 11 -9 31 16 45 30 16 32 30 5 30 -11
0 -19 -6 -17 -12 1 -7 -8 -14 -19 -16 -16 -2 -21 -9 -18 -25 4 -21 4 -21 -5
-2 -10 24 -5 35 17 35 10 0 18 8 19 19 1 13 -3 18 -11 15 -8 -3 -22 3 -31 13
-10 10 -21 17 -24 16 -3 -1 -16 7 -29 18 -19 16 -27 18 -38 8 -7 -6 -11 -16
-7 -22 4 -6 1 -7 -7 -2 -10 6 -12 4 -6 -11 6 -15 5 -16 -5 -7 -10 10 -9 17 6
33 16 17 16 20 2 26 -9 3 -13 12 -11 19 4 8 -1 13 -10 11 -19 -3 -34 -16 -17
-16 7 0 9 -5 4 -12 -4 -7 -8 -20 -8 -28 0 -10 -8 -14 -24 -12 -16 3 -21 0 -16
-9 5 -8 4 -10 -4 -5 -17 11 -2 29 20 23 23 -6 26 11 4 19 -8 4 -23 0 -33 -7
-15 -13 -16 -12 -3 4 8 10 22 16 32 14 12 -3 17 1 16 14 -1 22 -8 24 -26 7
-11 -10 -13 -10 -7 0 4 6 2 12 -3 12 -6 0 -11 -6 -11 -12 -1 -19 -29 -53 -37
-45 -3 4 2 14 13 21 10 8 16 17 12 21 -3 4 -15 -2 -26 -13 -15 -15 -22 -17
-25 -7 -3 7 0 18 6 24 16 16 -4 13 -26 -3 -13 -10 -14 -15 -6 -18 10 -3 9 -10
-3 -26 -12 -19 -17 -20 -27 -9 -6 8 -8 17 -4 20 3 4 1 7 -5 7 -15 0 -15 -23
-1 -37 8 -8 8 -16 0 -30 -10 -16 -11 -16 -8 6 1 13 -3 26 -9 28 -7 2 -10 -9
-8 -32 1 -19 -2 -35 -7 -35 -6 0 -8 4 -5 9 3 5 -2 15 -11 22 -14 12 -15 11 -8
-11 l8 -25 -21 25 c-12 14 -21 20 -22 13 0 -6 5 -15 10 -18 6 -3 10 -11 10
-18 0 -6 -7 -2 -16 9 -15 18 -15 18 -10 0 4 -10 1 -25 -5 -32 -8 -9 -8 -14 -1
-14 6 0 14 5 17 10 4 6 13 7 23 1 9 -4 24 -6 32 -4 13 4 13 3 1 -6 -10 -6 -21
-6 -32 0 -14 7 -22 3 -38 -17 -11 -14 -17 -33 -14 -42 4 -14 3 -14 -5 -3 -6 8
-8 21 -5 30 4 14 3 14 -6 1 -14 -19 -14 -26 2 -42 24 -26 42 -52 30 -45 -6 4
-13 4 -16 0 -2 -5 -2 -2 0 5 1 8 -2 12 -9 10 -15 -5 -18 -49 -4 -47 32 4 37
-2 16 -19 -13 -10 -24 -31 -26 -46 -2 -24 -1 -26 14 -14 13 11 14 11 8 -1 -6
-9 -5 -12 5 -9 8 3 13 14 12 24 -1 10 0 13 3 6 3 -6 10 -10 15 -6 16 9 10 -5
-10 -25 -14 -14 -22 -16 -30 -8 -7 7 -11 7 -11 1 0 -12 21 -34 32 -34 4 0 8 6
8 14 0 17 27 29 35 16 3 -6 1 -18 -5 -27 -9 -15 -10 -14 -4 7 5 22 4 23 -7 10
-8 -8 -20 -20 -26 -26 -10 -8 -9 -15 2 -30 14 -17 15 -17 9 -1 -5 13 -2 18 7
17 27 -4 40 0 34 11 -4 6 2 5 14 -3 16 -10 18 -14 7 -20 -8 -5 -12 -17 -9 -28
3 -11 1 -20 -5 -20 -6 0 -9 11 -7 25 1 15 -2 24 -9 22 -6 -2 -11 -17 -12 -33
-1 -26 2 -30 25 -31 14 0 36 -3 48 -7 17 -5 22 -4 20 6 -2 7 -2 10 0 5 3 -4
10 -4 16 0 7 4 6 -1 -2 -10 -8 -10 -9 -17 -3 -17 6 0 18 10 26 22 9 12 19 19
22 15 4 -4 -4 -16 -17 -27 -22 -19 -22 -20 -4 -18 11 2 25 10 31 18 10 12 16
13 38 1 14 -8 24 -16 22 -18 -2 -3 -14 2 -26 9 -18 11 -22 11 -31 -5 -6 -9
-14 -15 -20 -12 -5 4 -9 2 -9 -4 0 -20 19 -21 32 -2 12 17 16 17 33 5 13 -10
15 -14 4 -14 -10 -1 -10 -3 3 -11 11 -6 15 -16 11 -26 -4 -9 -2 -14 3 -11 5 4
20 0 34 -9 14 -8 18 -12 9 -10 -9 3 -16 -1 -16 -8 0 -11 5 -11 19 -4 14 8 16
14 9 23 -6 7 -7 17 -3 21 4 5 -1 5 -10 2 -12 -4 -21 0 -28 13 -14 26 -13 29 9
27 11 0 17 -6 14 -14 -3 -7 0 -13 7 -13 6 0 10 10 8 23 -2 15 -9 21 -23 20
-11 -1 -14 0 -7 3 6 3 12 13 13 22 0 12 3 10 9 -5 5 -13 14 -23 20 -23 8 0 8
6 0 20 -8 15 -6 21 10 30 13 7 20 7 20 0 0 -5 -7 -10 -15 -10 -9 0 -12 -6 -8
-15 5 -14 8 -14 22 -2 26 22 41 29 41 18 0 -5 -8 -11 -17 -13 -16 -3 -27 -48
-11 -48 4 0 8 5 8 10 0 18 19 11 31 -11 9 -17 8 -20 -3 -13 -9 6 -9 3 2 -11
12 -15 12 -17 1 -10 -10 6 -12 4 -6 -5 5 -9 4 -11 -4 -6 -6 4 -19 2 -28 -6
-12 -9 -15 -9 -9 -1 4 8 2 12 -6 10 -7 -2 -10 -2 -5 0 4 3 4 10 1 15 -4 6 -2
8 4 4 6 -3 13 -2 16 3 13 21 -24 18 -38 -3 -14 -22 -13 -24 10 -34 13 -7 24
-17 24 -23 0 -8 -4 -8 -15 1 -13 11 -18 8 -17 -10 0 -3 -11 -5 -25 -4 -26 1
-46 21 -36 38 3 5 1 6 -6 2 -6 -4 -9 -11 -7 -15 3 -4 -1 -8 -9 -8 -8 0 -11 5
-8 11 4 6 0 5 -9 -1 -8 -7 -19 -9 -23 -5 -5 4 -4 0 0 -8 8 -13 7 -13 -8 -1
-13 10 -20 11 -30 2 -8 -6 -18 -7 -22 -3 -5 4 -5 1 -1 -6 6 -10 11 -10 22 -1
11 9 17 9 29 -1 8 -7 15 -9 15 -4 0 5 5 2 11 -6 10 -13 10 -13 6 1 -3 9 1 16
8 16 10 0 11 -5 5 -18 -6 -9 -18 -16 -27 -15 -10 2 -21 -2 -25 -8 -6 -8 -11
-7 -17 3 -6 9 -11 10 -15 2 -11 -17 -29 -13 -22 5 9 23 -3 37 -19 24 -7 -6
-16 -7 -18 -2 -3 4 3 13 14 20 12 8 19 9 19 1 0 -5 5 -7 11 -3 8 4 7 9 -2 16
-11 7 -10 8 4 4 11 -4 16 -2 12 5 -4 5 -12 8 -18 6 -7 -3 -28 7 -47 21 -24 18
-30 20 -20 7 13 -17 13 -18 0 -11 -8 4 -2 -4 13 -18 16 -15 22 -26 15 -27 -7
0 -21 -2 -30 -4 -23 -4 -33 12 -18 30 9 11 7 16 -9 24 -11 6 -26 8 -34 5 -23
-9 -31 16 -11 32 16 13 17 15 2 10 -12 -3 -15 -1 -11 10 8 22 -14 17 -31 -8
-9 -12 -19 -18 -23 -14 -4 4 -1 12 7 17 12 8 11 9 -5 5 -16 -5 -21 -1 -22 15
-2 17 1 19 13 8 11 -9 18 -9 22 -2 4 5 15 9 24 7 10 -1 21 3 25 8 4 7 1 8 -7
3 -9 -5 -11 -4 -6 4 4 7 2 10 -4 9 -7 -2 -14 5 -15 14 -4 22 -42 71 -47 61 -3
-5 -4 -3 -2 3 1 6 -3 17 -9 24 -9 10 -9 11 2 5 9 -5 12 -4 7 3 -11 18 -29 14
-22 -3 3 -9 -1 -18 -9 -21 -8 -4 -12 -11 -9 -16 4 -6 10 -5 15 3 6 10 9 10 9
2 0 -21 -21 -26 -38 -9 -9 9 -12 16 -6 16 6 0 11 7 12 15 1 8 3 22 4 30 1 9 7
14 14 11 15 -6 26 3 18 15 -3 5 -14 4 -25 -1 -11 -6 -17 -15 -14 -21 4 -5 1
-9 -4 -9 -14 0 -14 17 -1 25 6 3 10 11 10 16 0 6 -6 7 -12 3 -9 -5 -9 -2 1 9
11 13 11 17 1 17 -8 0 -10 3 -7 7 4 3 0 15 -10 25 -9 10 -11 18 -5 18 6 0 12
-3 15 -7 2 -5 2 -2 1 5 -2 6 1 12 6 12 6 0 10 -7 10 -15 0 -8 5 -15 11 -15 8
0 8 -4 0 -14 -15 -17 -1 -28 19 -15 11 6 12 9 2 9 -7 0 -11 4 -7 9 3 5 1 12
-4 16 -16 9 0 37 18 31 12 -5 11 -2 -3 9 -10 8 -22 12 -26 10 -4 -3 -14 2 -21
11 -11 14 -10 15 6 12 14 -2 20 3 21 20 1 12 -3 22 -9 22 -6 0 -7 3 -4 7 4 3
0 14 -9 24 -9 10 -11 20 -6 23 5 3 15 -8 22 -25 10 -22 15 -27 21 -17 5 7 9 8
9 2 0 -6 6 -11 14 -11 8 0 13 8 11 19 -2 10 1 18 6 18 6 0 7 5 3 11 -4 8 -9 7
-15 -2 -4 -7 -5 -17 -3 -21 6 -10 -10 -11 -19 -1 -4 3 -1 13 6 22 11 14 10 14
-6 2 -9 -8 -20 -11 -24 -7 -9 9 2 17 26 19 19 1 25 9 22 30 0 4 4 7 10 7 6 0
8 -9 4 -22 -5 -21 -5 -22 6 -4 10 16 8 22 -11 36 -13 10 -20 22 -16 29 6 9 11
9 21 1 10 -8 16 -7 23 5 5 9 12 16 15 16 20 -3 28 0 23 8 -3 4 6 19 19 31 14
13 25 19 25 13 0 -6 -5 -14 -10 -16 -6 -3 -5 -4 2 -3 7 2 22 -4 33 -13 20 -16
20 -16 1 6 -14 17 -16 26 -8 36 9 10 8 17 0 25 -20 20 6 39 29 21 16 -12 17
-12 6 2 -7 9 -10 19 -6 22 13 13 20 7 19 -15 -1 -18 -7 -22 -24 -21 -13 2 -21
-1 -17 -7 3 -6 13 -10 21 -10 8 0 14 -5 14 -12 0 -6 11 -2 23 11 21 19 25 20
37 6 10 -12 16 -13 26 -4 12 10 11 14 -3 25 -16 12 -16 13 -1 8 20 -7 41 27
31 52 -10 28 15 7 32 -26z m205 -11 c0 -6 -8 -8 -17 -5 -17 6 -17 5 0 -8 23
-18 22 -29 -2 -16 -14 7 -22 7 -27 -2 -4 -6 -3 -8 3 -5 6 4 13 0 17 -8 3 -9
12 -12 23 -8 17 6 16 5 -1 -15 -17 -20 -15 -27 7 -23 4 0 7 -3 7 -8 0 -6 -9
-9 -19 -8 -11 0 -18 4 -15 8 2 4 -7 14 -21 23 -24 16 -24 18 -11 45 9 16 12
31 9 35 -4 3 6 6 20 6 15 0 27 -5 27 -11z m25 -20 c-3 -5 0 -7 7 -4 17 6 81
-52 72 -66 -4 -7 -14 1 -25 18 -10 15 -19 23 -19 18 0 -6 5 -16 10 -21 8 -8 6
-15 -6 -25 -16 -12 -17 -12 -11 3 3 10 0 24 -9 33 -9 8 -11 15 -5 15 6 0 11 5
11 12 0 9 -3 9 -12 0 -7 -7 -15 -12 -19 -12 -9 0 -18 37 -12 44 9 9 24 -4 18
-15z m13 -51 c7 -7 8 -16 3 -22 -5 -7 -1 -18 9 -29 17 -18 18 -18 17 0 -1 10
5 18 13 18 8 0 20 4 26 7 6 4 22 -4 35 -19 13 -14 19 -23 13 -20 -7 4 -14 0
-18 -8 -3 -8 -11 -15 -17 -15 -7 0 -4 9 7 23 l19 22 -22 -19 c-24 -20 -32 -10
-10 14 10 12 9 12 -5 1 -12 -9 -18 -10 -18 -2 0 6 -4 11 -10 11 -5 0 -1 -13 8
-30 9 -16 23 -30 30 -30 8 0 10 -5 6 -12 -5 -8 -14 -3 -28 14 -12 14 -29 24
-39 23 -9 -2 -15 0 -12 5 3 4 -2 13 -10 20 -8 7 -12 16 -9 21 5 9 -10 13 -30
10 -5 -1 -4 5 4 13 15 19 22 20 38 4z m-588 -94 c0 -8 -4 -14 -10 -14 -5 0
-10 2 -10 4 0 2 -3 12 -6 20 -5 12 -2 15 10 10 9 -3 16 -12 16 -20z m410 12
c0 -3 -4 -8 -10 -11 -5 -3 -10 -1 -10 4 0 6 5 11 10 11 6 0 10 -2 10 -4z m316
-13 c17 -22 18 -41 2 -25 -17 17 -25 15 -31 -8 -4 -16 -2 -18 12 -11 24 13 51
-5 51 -34 0 -14 5 -25 11 -25 6 0 9 -6 6 -12 -2 -7 1 -28 9 -45 8 -21 9 -35 3
-39 -13 -8 -41 15 -33 28 3 5 12 1 20 -9 10 -11 9 -5 -3 17 -9 19 -16 41 -15
48 2 6 -4 12 -13 12 -8 0 -15 -5 -15 -11 0 -5 5 -7 12 -3 6 4 8 3 4 -4 -3 -6
-2 -13 4 -17 5 -3 10 -11 10 -17 0 -6 -7 -5 -17 3 -15 12 -16 12 -8 -1 15 -25
14 -36 -5 -36 -13 0 -17 6 -13 21 12 54 9 76 -11 88 -12 6 -25 10 -29 9 -5 -1
-5 3 -1 9 4 7 8 26 9 43 3 38 2 36 16 36 7 0 18 -8 25 -17z m-456 -13 c8 -5
12 -11 9 -14 -3 -3 -14 1 -25 9 -21 16 -8 20 16 5z m225 -41 c-4 -5 -14 -9
-23 -8 -14 0 -14 2 2 8 14 5 16 10 8 15 -7 4 -17 4 -24 0 -7 -4 -8 -3 -4 4 4
7 2 12 -3 12 -6 0 -11 5 -11 11 0 6 14 1 30 -11 17 -12 28 -26 25 -31z m-182
28 c3 -8 2 -20 -3 -26 -5 -9 -7 -4 -7 13 0 29 2 32 10 13z m-73 -7 c0 -5 -8
-10 -17 -10 -15 0 -16 2 -3 10 19 12 20 12 20 0z m157 -10 c10 -13 8 -16 -6
-16 -13 0 -17 6 -13 19 2 10 5 16 6 15 1 -2 7 -10 13 -18z m-127 -4 c0 -2 -7
-7 -16 -10 -8 -3 -12 -2 -9 4 6 10 25 14 25 6z m-63 -38 c-3 -7 -5 -2 -5 12 0
14 2 19 5 13 2 -7 2 -19 0 -25z m145 17 c2 3 5 -2 5 -10 0 -10 -4 -12 -12 -5
-7 5 -14 8 -17 5 -2 -3 -5 2 -5 10 0 10 4 12 12 5 7 -5 14 -8 17 -5z m86 1
c-7 -8 -15 -12 -17 -11 -5 6 10 25 20 25 5 0 4 -6 -3 -14z m97 4 c3 -6 -1 -7
-10 -4 -10 4 -15 2 -13 -6 2 -7 -4 -15 -12 -17 -13 -4 -13 -3 0 6 8 6 11 11 7
11 -11 0 2 20 13 20 5 0 12 -4 15 -10z m-265 -4 c0 -2 -8 -10 -17 -17 -16 -13
-17 -12 -4 4 13 16 21 21 21 13z m-76 -32 c3 -8 2 -12 -4 -9 -6 3 -10 10 -10
16 0 14 7 11 14 -7z m224 -19 c-3 -3 -9 2 -12 12 -6 14 -5 15 5 6 7 -7 10 -15
7 -18z m-218 -14 c0 -6 -4 -12 -8 -15 -5 -3 -9 1 -9 9 0 8 4 15 9 15 4 0 8 -4
8 -9z m315 -9 c-3 -3 -11 0 -18 7 -9 10 -8 11 6 5 10 -3 15 -9 12 -12z m-395
-2 c0 -5 -5 -10 -11 -10 -5 0 -7 5 -4 10 3 6 8 10 11 10 2 0 4 -4 4 -10z
m-180 -10 c0 -5 -4 -10 -10 -10 -5 0 -10 5 -10 10 0 6 5 10 10 10 6 0 10 -4
10 -10z m340 0 c0 -5 -5 -10 -11 -10 -5 0 -7 5 -4 10 3 6 8 10 11 10 2 0 4 -4
4 -10z m200 4 c0 -8 -19 -13 -24 -6 -3 5 1 9 9 9 8 0 15 -2 15 -3z m85 -4 c3
-5 2 -10 -4 -10 -5 0 -13 5 -16 10 -3 6 -2 10 4 10 5 0 13 -4 16 -10z m-455
-14 c0 -3 -4 -8 -10 -11 -5 -3 -10 -1 -10 4 0 6 5 11 10 11 6 0 10 -2 10 -4z
m53 -8 c-2 -5 -10 -8 -18 -8 -8 0 -16 3 -18 8 -3 4 5 7 18 7 13 0 21 -3 18 -7z
m77 8 c0 -3 -4 -8 -10 -11 -5 -3 -10 -1 -10 4 0 6 5 11 10 11 6 0 10 -2 10 -4z
m-290 -21 c7 -8 17 -12 24 -8 6 3 8 2 4 -2 -5 -5 -18 -9 -31 -11 -17 -2 -23 3
-23 17 0 23 9 24 26 4z m166 -4 c-4 -5 -1 -11 6 -13 7 -3 5 -7 -6 -11 -10 -4
-15 -3 -11 3 3 6 0 10 -7 10 -9 0 -9 3 2 10 19 12 23 12 16 1z m88 1 c3 -5 -1
-9 -9 -9 -8 0 -15 4 -15 9 0 4 4 8 9 8 6 0 12 -4 15 -8z m366 -1 c0 -5 -7 -12
-16 -15 -14 -5 -15 -4 -4 9 14 17 20 19 20 6z m216 -24 c18 6 7 -125 -15 -165
-6 -11 -7 -22 -4 -26 3 -3 1 -6 -5 -6 -16 0 -24 18 -10 23 9 4 10 6 1 6 -6 1
-18 -8 -26 -19 -8 -11 -16 -17 -20 -14 -7 7 -28 -31 -25 -45 2 -5 -6 -16 -16
-24 -15 -11 -16 -16 -6 -22 8 -5 11 -4 7 2 -4 6 0 13 7 16 10 4 14 -1 13 -14
-1 -10 -5 -19 -10 -19 -4 0 -5 -5 -1 -11 4 -8 9 -7 15 2 4 7 5 17 3 21 -3 4 0
8 6 8 6 0 9 4 6 9 -3 5 1 14 9 21 11 9 14 8 12 -9 -1 -12 -5 -21 -9 -21 -4 0
-8 -6 -8 -12 0 -21 -60 -79 -73 -72 -7 4 -9 3 -4 -1 9 -10 -43 -66 -55 -59
-10 6 -11 24 0 23 21 -4 31 4 40 30 6 18 17 28 28 28 23 -3 27 15 8 38 -8 11
-13 14 -9 8 4 -9 1 -11 -9 -7 -9 3 -16 1 -16 -6 0 -6 5 -8 10 -5 6 3 10 2 10
-4 0 -13 -17 -23 -23 -14 -2 5 -2 2 -1 -4 4 -15 -12 -17 -21 -3 -3 5 -12 7
-21 3 -12 -5 -12 -7 3 -20 16 -13 16 -13 -6 -3 -18 9 -22 9 -16 0 4 -7 1 -17
-6 -22 -11 -8 -10 -9 4 -4 19 6 20 5 11 -18 -3 -9 -10 -16 -16 -16 -5 0 -7 4
-4 9 3 5 -1 11 -9 15 -9 3 -12 12 -8 23 7 17 6 17 -11 1 -9 -10 -14 -23 -10
-29 5 -8 3 -9 -6 -4 -9 5 -11 4 -6 -3 4 -7 2 -12 -3 -12 -15 0 -14 12 4 36 8
12 12 24 8 27 -3 4 4 5 16 2 14 -3 26 4 37 21 12 18 20 22 29 14 16 -13 30 4
19 22 -4 7 -3 8 4 4 7 -4 12 -2 12 4 0 6 5 8 10 5 6 -3 10 -1 10 4 0 22 2 26
17 44 9 9 12 17 7 17 -5 0 -2 5 6 10 8 5 15 15 15 22 0 7 8 12 18 10 14 -2 17
2 13 22 -3 18 -1 23 10 19 16 -6 19 13 4 22 -6 4 -8 11 -4 16 3 5 1 16 -6 24
-6 7 -7 16 -2 19 5 3 8 19 7 35 -1 17 2 28 6 26 4 -3 10 3 14 13 6 15 8 15 18
1 7 -9 17 -14 23 -12z m-626 3 c0 -5 -2 -10 -4 -10 -3 0 -8 5 -11 10 -3 6 -1
10 4 10 6 0 11 -4 11 -10z m361 -3 c-6 -8 -7 -18 -3 -22 4 -5 1 -5 -6 -1 -10
6 -10 11 -1 22 6 8 14 14 16 14 3 0 0 -6 -6 -13z m72 -2 c4 -8 3 -16 -1 -19
-4 -3 -9 4 -9 15 -2 23 3 25 10 4z m-400 -10 c-3 -9 -8 -14 -10 -11 -3 3 -2 9
2 15 9 16 15 13 8 -4z m-48 -5 c3 -6 -1 -7 -9 -4 -18 7 -21 14 -7 14 6 0 13
-4 16 -10z m-31 -22 c-5 -8 -1 -9 12 -4 14 5 16 4 8 -4 -6 -6 -19 -8 -28 -4
-14 5 -15 9 -4 15 18 12 20 11 12 -3z m67 -15 c13 -16 12 -17 -3 -4 -17 13
-22 21 -14 21 2 0 10 -8 17 -17z m-22 -16 c8 -11 6 -13 -9 -12 -11 1 -23 5
-27 10 -5 4 -2 5 5 1 6 -4 12 -2 12 3 0 15 5 14 19 -2z m55 -5 c2 -4 -5 -9
-17 -9 -17 -2 -19 0 -7 7 18 12 18 12 24 2z m346 4 c0 -2 -7 -7 -16 -10 -8 -3
-12 -2 -9 4 6 10 25 14 25 6z m-424 -33 c-6 -6 -36 9 -36 18 0 5 9 4 20 -3 10
-7 18 -14 16 -15z m-53 2 c-3 -9 -8 -14 -10 -11 -3 3 -2 9 2 15 9 16 15 13 8
-4z m493 0 c-6 -18 -2 -19 27 -4 21 10 21 10 2 -6 -10 -8 -23 -14 -29 -12 -13
4 -17 37 -4 37 6 0 8 -7 4 -15z m-316 -15 c0 -5 -5 -10 -11 -10 -5 0 -7 5 -4
10 3 6 8 10 11 10 2 0 4 -4 4 -10z m-346 -16 c5 -14 4 -15 -9 -4 -17 14 -19
20 -6 20 5 0 12 -7 15 -16z m243 1 c0 -8 -4 -15 -9 -15 -4 0 -8 7 -8 15 0 8 4
15 8 15 5 0 9 -7 9 -15z m394 -2 c2 1 -1 -3 -8 -9 -7 -6 -11 -14 -8 -17 3 -4
2 -5 -2 -2 -4 3 -7 14 -8 25 -1 14 2 17 10 10 7 -5 14 -9 16 -7z m-317 -9 c3
-8 2 -12 -4 -9 -6 3 -10 10 -10 16 0 14 7 11 14 -7z m66 -8 c0 -3 -4 -8 -10
-11 -5 -3 -10 -1 -10 4 0 6 5 11 10 11 6 0 10 -2 10 -4z m74 -4 c3 -5 -1 -9
-9 -9 -8 0 -12 4 -9 9 3 4 7 8 9 8 2 0 6 -4 9 -8z m193 -7 c0 -8 -4 -12 -9 -9
-5 3 -6 10 -3 15 9 13 12 11 12 -6z m-385 -12 c-6 -2 -9 -10 -6 -15 4 -7 2 -8
-5 -4 -13 9 -5 26 12 25 9 0 8 -2 -1 -6z m53 -2 c3 -5 2 -12 -3 -15 -5 -3 -9
1 -9 9 0 17 3 19 12 6z m273 -5 c-7 -8 -15 -12 -17 -11 -5 6 10 25 20 25 5 0
4 -6 -3 -14z m-31 -11 c0 -8 -4 -12 -9 -9 -5 3 -6 10 -3 15 9 13 12 11 12 -6z
m65 8 c-6 -2 -9 -10 -6 -15 4 -7 2 -8 -5 -4 -13 9 -5 26 12 25 9 0 8 -2 -1 -6z
m-511 -20 c6 -6 11 -17 12 -24 2 -8 7 -20 11 -28 6 -9 5 -12 -2 -7 -6 3 -14 2
-17 -4 -5 -8 -11 -8 -20 0 -10 8 -15 8 -20 0 -5 -8 -14 -2 -26 17 -19 28 -18
28 3 44 23 18 42 19 59 2z m723 -27 c-3 -9 -12 -15 -18 -13 -6 3 -18 -2 -27
-10 -15 -12 -16 -11 -13 13 1 14 6 29 10 32 4 4 4 -2 1 -13 -7 -20 -7 -20 8
-1 8 11 15 24 15 30 0 6 7 3 15 -5 9 -9 13 -23 9 -33z m-466 12 c10 -12 10
-18 1 -24 -7 -4 -9 -3 -5 4 3 6 2 13 -4 17 -5 3 -10 11 -10 17 0 6 1 9 3 7 1
-2 8 -11 15 -21z m-58 2 c8 -5 11 -10 5 -10 -5 0 -17 5 -25 10 -8 5 -10 10 -5
10 6 0 17 -5 25 -10z m144 2 c3 -5 -1 -9 -9 -9 -8 0 -12 4 -9 9 3 4 7 8 9 8 2
0 6 -4 9 -8z m66 -1 c0 -6 -4 -12 -8 -15 -5 -3 -9 1 -9 9 0 8 4 15 9 15 4 0 8
-4 8 -9z m80 -2 c0 -5 -4 -8 -9 -5 -5 3 -12 -1 -15 -10 -4 -9 -9 -14 -13 -11
-3 4 -12 -1 -20 -11 -13 -15 -13 -15 -3 6 6 12 15 20 19 17 5 -3 11 2 15 10 6
17 26 20 26 4z m-320 -19 c0 -5 -7 -7 -15 -4 -8 4 -15 8 -15 10 0 2 7 4 15 4
8 0 15 -4 15 -10z m50 -15 c0 -8 -4 -15 -10 -15 -5 0 -7 7 -4 15 4 8 8 15 10
15 2 0 4 -7 4 -15z m-50 -16 c0 -4 -7 -6 -15 -3 -8 4 -15 10 -15 15 0 4 7 6
15 3 8 -4 15 -10 15 -15z m115 11 c-3 -5 -11 -10 -16 -10 -6 0 -7 5 -4 10 3 6
11 10 16 10 6 0 7 -4 4 -10z m85 2 c0 -4 -10 -9 -22 -9 -18 -2 -20 0 -8 7 18
12 30 13 30 2z m-65 -12 c-3 -5 1 -10 9 -10 9 0 16 -5 16 -10 0 -7 -7 -7 -20
0 -17 9 -20 30 -4 30 3 0 2 -4 -1 -10z m325 -70 c0 -5 -5 -10 -11 -10 -5 0 -7
5 -4 10 3 6 8 10 11 10 2 0 4 -4 4 -10z m-61 -56 c-15 -14 -17 -14 -22 0 -4 9
-3 15 1 15 20 -3 23 3 11 19 -12 16 -12 16 6 0 18 -16 18 -19 4 -34z m-389 0
c0 -2 -9 0 -20 6 -11 6 -20 13 -20 16 0 2 9 0 20 -6 11 -6 20 -13 20 -16z
m265 -13 c-3 -11 -1 -22 5 -26 14 -9 41 14 34 29 -3 6 3 0 14 -13 11 -13 24
-21 31 -17 6 4 11 3 11 -2 0 -5 -14 -15 -30 -22 -27 -11 -33 -10 -51 6 -18 17
-22 17 -32 3 -13 -16 -57 -23 -57 -9 0 4 7 11 16 14 8 3 12 11 8 17 -4 8 -3 9
5 5 6 -4 9 -12 6 -17 -4 -5 -1 -9 4 -9 6 0 12 6 13 13 0 6 2 17 3 22 2 6 3 13
4 18 0 4 6 7 12 7 6 0 8 -8 4 -19z m-115 -31 c0 -5 -4 -10 -10 -10 -5 0 -10 5
-10 10 0 6 5 10 10 10 6 0 10 -4 10 -10z"/>
<path d="M2807 1916 c-4 -10 -1 -13 9 -9 7 3 14 9 14 14 0 14 -17 10 -23 -5z"/>
<path d="M2775 1910 c6 -10 4 -12 -8 -7 -9 3 -18 3 -21 -1 -3 -4 4 -8 14 -9
23 -2 35 13 19 23 -8 5 -9 3 -4 -6z"/>
<path d="M2782 1881 c-11 -7 -10 -10 3 -15 20 -7 35 0 34 17 0 9 -2 9 -6 0 -2
-7 -9 -13 -14 -13 -6 0 -7 5 -4 10 7 12 4 12 -13 1z"/>
<path d="M2590 1740 c0 -5 5 -10 10 -10 6 0 10 5 10 10 0 6 -4 10 -10 10 -5 0
-10 -4 -10 -10z"/>
<path d="M2586 1663 c6 -4 14 -15 17 -23 5 -11 6 -9 4 4 -1 11 -9 21 -17 23
-10 3 -11 2 -4 -4z"/>
<path d="M2548 1623 c7 -3 16 -2 19 1 4 3 -2 6 -13 5 -11 0 -14 -3 -6 -6z"/>
<path d="M2558 1603 c7 -3 16 -2 19 1 4 3 -2 6 -13 5 -11 0 -14 -3 -6 -6z"/>
<path d="M2535 1581 c-3 -6 4 -15 15 -21 13 -7 20 -7 20 0 0 5 -7 10 -16 10
-8 0 -12 5 -9 10 3 6 4 10 1 10 -3 0 -7 -4 -11 -9z"/>
<path d="M2557 1519 c7 -7 15 -10 18 -7 3 3 -2 9 -12 12 -14 6 -15 5 -6 -5z"/>
<path d="M2535 1499 c-5 -8 -4 -10 0 -6 5 4 15 -3 22 -15 7 -13 12 -18 13 -12
0 5 -6 18 -13 29 -12 15 -15 16 -22 4z"/>
<path d="M2564 1379 c-4 -7 -3 -9 4 -5 7 4 10 -2 9 -14 -1 -13 -6 -19 -15 -15
-7 3 -10 0 -7 -6 10 -16 28 -5 31 19 4 24 -11 38 -22 21z"/>
<path d="M2593 1324 c4 -4 -1 -12 -10 -19 -13 -9 -13 -14 -3 -20 9 -6 11 -4 5
5 -6 10 -4 12 9 7 9 -4 15 -3 11 2 -3 5 0 11 7 13 7 3 4 7 -7 12 -11 4 -16 4
-12 0z"/>
<path d="M2620 1285 c0 -8 4 -15 10 -15 5 0 7 7 4 15 -4 8 -8 15 -10 15 -2 0
-4 -7 -4 -15z"/>
<path d="M2595 1260 c3 -5 8 -10 11 -10 2 0 4 5 4 10 0 6 -5 10 -11 10 -5 0
-7 -4 -4 -10z"/>
<path d="M2628 1243 c6 -2 18 -2 25 0 6 3 1 5 -13 5 -14 0 -19 -2 -12 -5z"/>
<path d="M2665 1214 c17 -13 18 -16 5 -25 -13 -9 -12 -10 3 -5 9 3 17 1 17 -4
0 -6 5 -10 11 -10 6 0 1 14 -11 30 -12 17 -27 30 -33 30 -7 0 -3 -7 8 -16z"/>
<path d="M2635 1200 c3 -5 8 -10 11 -10 2 0 4 5 4 10 0 6 -5 10 -11 10 -5 0
-7 -4 -4 -10z"/>
<path d="M2712 1160 c-9 -15 -9 -21 1 -26 6 -4 9 -4 5 1 -4 4 -3 14 4 22 6 7
9 15 7 18 -3 2 -10 -4 -17 -15z"/>
<path d="M2745 1120 c-3 -6 1 -7 9 -4 18 7 21 14 7 14 -6 0 -13 -4 -16 -10z"/>
<path d="M2780 1123 c0 -5 4 -14 9 -21 7 -11 9 -11 14 1 3 8 3 18 0 21 -9 8
-23 7 -23 -1z"/>
<path d="M2810 1091 c0 -18 41 -34 53 -22 9 9 8 14 -3 21 -24 15 -36 11 -14
-5 10 -8 14 -15 7 -15 -6 0 -19 7 -27 16 -9 8 -16 11 -16 5z"/>
<path d="M2876 1063 c-6 -14 -5 -15 5 -6 7 7 10 15 7 18 -3 3 -9 -2 -12 -12z"/>
<path d="M3020 1061 c0 -3 11 -11 24 -17 22 -10 23 -10 14 6 -10 16 -38 24
-38 11z"/>
<path d="M2930 1046 c0 -2 7 -7 16 -10 8 -3 12 -2 9 4 -6 10 -25 14 -25 6z"/>
<path d="M3073 1963 c9 -2 14 -9 11 -15 -4 -6 2 -5 15 1 27 15 27 16 -12 17
-17 1 -24 -1 -14 -3z"/>
<path d="M2950 1951 c0 -5 7 -11 15 -15 8 -3 15 -1 15 3 0 5 -7 11 -15 15 -8
3 -15 1 -15 -3z"/>
<path d="M3015 1911 c-4 -12 -11 -19 -18 -15 -7 4 -9 3 -4 -1 4 -5 0 -17 -10
-27 -15 -16 -18 -17 -33 -3 -16 15 -19 14 -38 -9 -19 -24 -40 -37 -27 -17 9
16 -12 22 -24 7 -13 -16 3 -33 32 -33 16 0 22 10 17 32 -1 5 2 6 6 2 21 -21
10 -43 -18 -38 -5 0 -8 -3 -8 -8 0 -11 -19 -9 -40 4 -20 13 -50 14 -57 2 -3
-6 -1 -7 5 -3 17 11 15 -9 -3 -24 -8 -7 -15 -9 -15 -6 0 4 -10 1 -22 -6 -13
-7 -30 -11 -38 -9 -8 2 -4 -6 9 -16 18 -15 22 -25 16 -39 -10 -24 -13 -34 -18
-59 -3 -13 -12 -20 -27 -20 -17 0 -23 -6 -26 -27 -2 -22 3 -30 27 -40 31 -14
36 -23 17 -34 -6 -4 -8 -3 -5 3 5 7 -21 10 -41 4 -1 -1 5 -12 13 -25 15 -23
15 -25 -3 -35 -11 -6 -23 -7 -27 -3 -5 4 -5 1 -1 -6 5 -7 11 -11 14 -8 8 9 33
-15 26 -26 -3 -5 0 -15 6 -23 7 -8 9 -15 5 -15 -4 0 7 -19 24 -42 17 -22 28
-46 24 -52 -3 -6 -3 -8 2 -4 14 13 37 -13 25 -27 -7 -9 -6 -16 5 -25 14 -12
14 -15 -1 -31 -10 -11 -12 -19 -6 -19 7 0 12 5 12 10 0 6 11 3 25 -6 23 -15
25 -15 19 0 -9 22 2 20 40 -9 18 -14 36 -22 39 -19 4 4 13 1 22 -6 12 -10 13
-16 3 -29 -11 -14 -11 -14 3 -4 8 7 25 11 37 8 12 -2 24 1 27 6 4 5 10 7 14 5
3 -3 7 4 7 14 0 10 -6 16 -13 13 -8 -3 -11 2 -8 16 5 25 -7 27 -25 6 -12 -14
-15 -14 -34 3 -32 30 -63 43 -82 35 -11 -4 -15 -2 -11 4 4 6 -3 9 -18 8 -13
-2 -29 3 -36 11 -8 10 -8 14 0 14 19 0 12 16 -14 30 -13 7 -22 17 -19 22 3 4
-1 8 -8 8 -10 0 -10 2 0 8 9 7 8 13 -8 27 -23 21 -22 66 4 94 16 18 16 19 -1
17 -19 -1 -25 29 -10 51 8 11 -7 53 -19 53 -3 0 -3 -4 0 -8 3 -5 -1 -9 -9 -9
-8 0 -11 5 -8 10 4 6 1 7 -7 2 -9 -6 -11 -4 -5 5 6 9 4 11 -5 5 -10 -6 -10 -4
-2 10 5 10 17 20 26 21 9 1 14 -2 10 -7 -3 -5 -10 -7 -15 -4 -10 7 -13 -8 -3
-18 9 -9 35 4 28 14 -5 8 10 13 30 10 5 -1 6 5 3 13 -4 9 -2 18 4 22 6 3 8 13
5 21 -9 23 12 53 31 46 11 -4 14 -3 9 5 -4 7 -2 12 5 12 7 0 10 3 7 6 -4 3
-16 0 -28 -6 -18 -10 -21 -9 -15 1 5 8 4 10 -4 5 -6 -4 -8 -12 -5 -18 4 -7 2
-8 -5 -4 -15 10 4 36 22 32 7 -1 9 -1 5 1 -5 3 -8 9 -8 15 0 6 7 5 16 -3 14
-11 19 -10 35 10 11 13 19 20 19 15 0 -4 -7 -16 -17 -26 -10 -11 -12 -18 -4
-18 6 0 17 11 23 25 9 19 14 22 24 14 8 -6 11 -15 8 -20 -3 -5 -1 -9 5 -9 18
0 22 19 6 28 -13 7 -12 10 10 20 14 7 23 17 20 22 -9 14 7 12 29 -5 14 -11 24
-12 38 -4 11 6 22 8 25 5 4 -3 12 -1 20 5 9 9 13 8 13 0 0 -13 22 -10 32 4 4
5 9 2 12 -8 4 -9 8 -24 11 -33 3 -8 10 -12 16 -9 5 4 18 0 27 -8 14 -12 37
-15 72 -8 3 1 -2 6 -10 11 -8 5 -23 7 -32 4 -9 -3 -26 4 -37 15 -11 11 -22 17
-24 13 -2 -4 -2 -1 -1 6 2 6 -2 12 -9 12 -8 0 -8 3 2 9 8 5 10 14 6 21 -6 9
-4 11 4 6 7 -5 10 -14 7 -22 -3 -7 -1 -16 4 -19 6 -4 10 -1 10 5 0 6 5 8 11 4
8 -4 7 -9 -2 -15 -18 -11 -9 -18 29 -23 18 -2 29 1 26 6 -3 5 -12 7 -19 4 -18
-7 -27 5 -14 20 7 8 7 14 -1 19 -5 3 -10 3 -10 -1 0 -3 -7 -1 -15 6 -12 10
-13 16 -3 29 12 14 11 14 -4 2 -10 -7 -18 -10 -18 -6 0 4 -6 2 -13 -4 -11 -8
-18 -6 -31 8 -10 11 -27 18 -38 16 -13 -3 -18 0 -15 9 3 7 2 19 -3 26 -6 9
-10 7 -15 -9z m37 -36 c9 2 24 -5 34 -16 9 -10 21 -16 27 -12 5 3 7 2 4 -4 -4
-5 -19 -9 -34 -8 -15 1 -34 -3 -41 -8 -7 -6 -12 -6 -11 -1 4 23 -2 26 -15 8
-14 -18 -15 -18 -21 -1 -7 17 -8 17 -20 0 -13 -17 -14 -17 -20 -1 -4 10 -11
16 -15 13 -5 -3 -11 -1 -14 4 -4 5 -2 12 4 16 5 3 15 -3 21 -13 12 -19 13 -18
37 9 16 20 28 26 36 21 6 -5 19 -8 28 -7z m-175 -40 c0 -8 -4 -12 -9 -9 -5 3
-6 10 -3 15 9 13 12 11 12 -6z m-43 -56 c-9 -10 -21 -16 -26 -13 -5 3 -2 14 8
25 9 10 21 16 26 13 5 -3 2 -14 -8 -25z m-64 -34 c-13 -15 -35 -11 -24 6 3 5
10 7 15 4 5 -4 9 -1 9 6 0 7 3 9 6 6 4 -4 1 -13 -6 -22z m-9 -54 c-9 -6 -10
-11 -2 -15 15 -10 14 -29 -1 -23 -7 2 -13 10 -14 18 0 17 17 42 25 34 3 -3 -1
-10 -8 -14z m-34 -195 c-3 -7 0 -19 6 -25 9 -9 7 -10 -8 -5 -17 7 -18 6 -7 -8
11 -14 10 -16 -4 -14 -20 3 -32 26 -14 26 7 0 10 6 7 14 -6 15 1 26 16 26 5 0
7 -6 4 -14z m3 -74 c0 -13 -12 -22 -22 -16 -10 6 -1 24 13 24 5 0 9 -4 9 -8z
m10 -63 c15 -28 5 -23 -15 7 -9 15 -12 23 -6 20 6 -4 16 -16 21 -27z m80 -124
c0 4 11 0 24 -8 16 -11 27 -12 33 -6 7 7 16 3 27 -12 9 -13 16 -18 16 -11 0 8
7 6 19 -5 11 -9 18 -20 15 -25 -3 -4 -1 -8 4 -8 6 0 13 7 16 17 6 14 8 14 20
-3 8 -10 12 -22 10 -26 -8 -12 -49 1 -66 22 -10 12 -19 16 -23 10 -10 -16 -25
-1 -18 18 5 14 3 15 -7 5 -11 -10 -17 -9 -32 4 -14 13 -20 13 -33 3 -13 -11
-20 -8 -12 4 1 2 -7 14 -18 27 l-20 24 23 -19 c12 -11 22 -16 22 -11z"/>
<path d="M3002 1867 c-6 -7 -7 -19 -3 -26 6 -10 10 -9 15 4 3 10 11 13 18 8 7
-4 23 -8 35 -9 17 -1 20 2 13 12 -6 6 -19 11 -28 9 -9 -1 -22 2 -28 6 -7 6
-16 4 -22 -4z"/>
<path d="M2819 1783 c-13 -16 -12 -17 4 -4 9 7 17 15 17 17 0 8 -8 3 -21 -13z"/>
<path d="M2976 1162 c-3 -5 1 -9 9 -9 8 0 12 4 9 9 -3 4 -7 8 -9 8 -2 0 -6 -4
-9 -8z"/>
<path d="M3242 1791 c-7 -4 -12 -12 -11 -17 5 -26 -2 -35 -21 -29 -13 4 -20 2
-20 -6 0 -7 3 -9 7 -6 3 4 15 0 25 -10 10 -9 21 -13 25 -9 4 4 1 11 -6 15 -9
6 -10 11 -2 15 6 4 11 1 11 -6 0 -10 2 -10 8 -1 5 9 12 6 21 -10 13 -21 13
-21 -4 -7 -16 13 -18 13 -13 0 3 -8 14 -14 26 -13 16 2 20 -3 18 -21 -2 -18 1
-22 14 -19 10 3 21 0 24 -6 4 -6 13 -11 19 -11 7 0 4 5 -6 11 -11 7 -16 18
-13 35 4 21 2 23 -9 14 -8 -7 -15 -7 -19 -1 -4 5 -2 12 4 16 16 10 2 24 -20
20 -19 -4 -47 29 -42 48 3 9 0 9 -16 -2z m16 -36 c-3 -3 -9 2 -12 12 -6 14 -5
15 5 6 7 -7 10 -15 7 -18z m62 -21 c0 -8 -19 -13 -24 -6 -3 5 1 9 9 9 8 0 15
-2 15 -3z m20 -40 c0 -8 -19 -13 -24 -6 -3 5 1 9 9 9 8 0 15 -2 15 -3z"/>
<path d="M2830 1720 c0 -5 5 -10 10 -10 6 0 10 5 10 10 0 6 -4 10 -10 10 -5 0
-10 -4 -10 -10z"/>
<path d="M3365 1626 c18 -13 18 -14 -2 -25 -16 -8 -23 -8 -27 2 -3 6 -3 2 0
-11 4 -18 1 -25 -15 -29 -12 -3 -21 -9 -21 -13 0 -5 9 -6 20 -3 18 5 25 -5 21
-29 -2 -13 37 -29 44 -18 5 9 -6 14 -26 12 -3 -1 -6 5 -6 12 0 7 5 13 11 12 6
0 12 4 13 9 1 6 -6 9 -17 9 -15 -1 -18 2 -10 11 5 6 6 16 2 20 -4 5 -1 5 6 1
7 -4 10 -12 7 -17 -3 -5 0 -6 8 -3 24 9 11 74 -16 74 -6 0 -2 -6 8 -14z"/>
<path d="M3327 1493 c-4 -3 -2 -12 3 -19 6 -6 9 -17 8 -24 -2 -7 3 -15 11 -18
9 -3 11 0 6 8 -5 9 -4 11 3 6 8 -5 5 -16 -10 -37 -12 -16 -25 -29 -30 -29 -4
0 -8 -8 -8 -17 1 -17 1 -17 14 0 16 21 23 22 23 2 0 -8 -4 -12 -8 -9 -4 2 -11
-1 -15 -7 -5 -8 -13 -4 -25 12 -13 17 -19 19 -19 9 0 -9 9 -23 20 -33 11 -9
17 -23 14 -32 -4 -8 -1 -15 7 -15 7 0 10 3 6 6 -3 4 6 22 21 42 15 19 28 44
28 54 1 10 2 19 4 21 10 12 3 51 -12 67 -20 21 -30 24 -41 13z m53 -41 c0 -1
-9 2 -20 8 -11 6 -20 15 -20 20 0 6 9 2 20 -7 11 -10 20 -19 20 -21z m-7 -34
c-6 -7 -9 -21 -8 -30 2 -10 0 -20 -4 -23 -4 -2 -7 6 -7 18 2 23 13 47 23 47 3
0 1 -6 -4 -12z"/>
<path d="M3226 1295 c-3 -9 1 -18 8 -21 12 -5 12 -9 -2 -23 -14 -14 -18 -14
-22 -3 -5 11 -9 11 -20 -3 -7 -9 -9 -15 -4 -14 5 1 17 -1 27 -6 17 -7 17 -8 0
-21 -10 -8 -12 -13 -5 -12 21 5 86 71 87 91 2 16 0 16 -16 1 -20 -18 -41 -11
-32 11 3 8 1 15 -5 15 -5 0 -13 -7 -16 -15z m64 -29 c0 -2 -7 -7 -16 -10 -8
-3 -12 -2 -9 4 6 10 25 14 25 6z m-40 -25 c0 -6 -4 -12 -8 -15 -5 -3 -9 1 -9
9 0 8 4 15 9 15 4 0 8 -4 8 -9z"/>
<path d="M3110 1215 c-7 -9 -11 -18 -8 -20 3 -3 11 1 18 10 7 9 11 18 8 20 -3
3 -11 -1 -18 -10z"/>
<path d="M3155 1200 c-3 -5 -1 -10 4 -10 6 0 11 5 11 10 0 6 -2 10 -4 10 -3 0
-8 -4 -11 -10z"/>
<path d="M3145 1170 c-3 -6 1 -7 9 -4 18 7 21 14 7 14 -6 0 -13 -4 -16 -10z"/>
<path d="M2830 1142 c0 -5 7 -9 15 -9 8 0 12 4 9 9 -3 4 -9 8 -15 8 -5 0 -9
-4 -9 -8z"/>
<path d="M2950 1100 c0 -5 5 -10 10 -10 6 0 10 5 10 10 0 6 -4 10 -10 10 -5 0
-10 -4 -10 -10z"/>
<path d="M3190 1861 c0 -5 7 -11 14 -14 10 -4 13 -1 9 9 -6 15 -23 19 -23 5z"/>
<path d="M3399 1688 c-12 -8 -12 -9 1 -5 8 2 20 -3 26 -11 9 -13 11 -13 11 1
0 20 -20 28 -38 15z"/>
<path d="M3431 1521 c-8 -14 -6 -22 7 -32 16 -13 16 -13 2 5 -13 18 -13 19 1
14 26 -10 41 6 19 20 -16 10 -21 9 -29 -7z"/>
<path d="M3465 1490 c-3 -5 -3 -14 0 -20 8 -12 -5 -13 -25 -1 -26 17 -32 -1
-8 -27 21 -23 21 -25 3 -19 -18 7 -19 6 -3 -6 13 -11 15 -16 6 -25 -9 -9 -9
-12 0 -12 11 0 16 13 13 33 0 4 4 7 9 7 6 0 10 5 10 11 0 5 -4 7 -10 4 -5 -3
-10 -2 -10 4 0 5 5 11 12 13 6 2 12 14 13 26 2 24 -1 27 -10 12z m-20 -38 c-3
-3 -11 0 -18 7 -9 10 -8 11 6 5 10 -3 15 -9 12 -12z"/>
<path d="M3345 1280 c-3 -6 1 -7 9 -4 18 7 21 14 7 14 -6 0 -13 -4 -16 -10z"/>
<path d="M2679 1337 c-6 -14 -7 -47 -1 -51 4 -2 18 2 32 10 14 7 19 13 13 14
-7 0 -12 5 -10 11 1 9 -30 23 -34 16z m28 -23 c0 -7 -4 -11 -8 -8 -4 2 -9 -2
-12 -8 -3 -7 -5 -4 -4 8 1 22 24 30 24 8z"/>
<path d="M3420 1320 c0 -5 5 -10 11 -10 5 0 7 5 4 10 -3 6 -8 10 -11 10 -2 0
-4 -4 -4 -10z"/>
<path d="M3194 1098 c-4 -6 -3 -8 4 -4 5 3 12 1 14 -6 3 -8 6 -9 11 -1 4 6 0
13 -8 17 -8 3 -17 0 -21 -6z"/>
</g>
</svg>
